<svg width="311" height="42" viewBox="0 0 311 42" fill="none" xmlns="http://www.w3.org/2000/svg">
<path d="M56.3398 15.9158H30.0495V7.00037H56.3398V15.9158Z" fill="#02983B"/>
<path d="M53.5542 26.6897L30.05 38.8567V29.3853L56.34 15.9155V21.8412C56.34 23.841 55.4788 25.6932 53.5542 26.6897Z" fill="#004097"/>
<path d="M86.9877 15.9158H60.104V7.00037H86.9877V15.9158Z" fill="#02983B"/>
<path d="M26.2876 15.9151H0V7H26.2876V15.9151Z" fill="#02983B"/>
<path d="M23.5029 26.6895L0 38.8559V29.3848L26.2876 15.9153V21.841C26.2876 23.8407 25.4239 25.693 23.5029 26.6895Z" fill="#004097"/>
<path d="M60.104 23.7087V28.2822C60.104 30.6807 62.0485 32.6255 64.4494 32.6255H86.9877V23.7087H60.104Z" fill="#004097"/>
<path d="M96.9965 11.696V9.12H106.209C107.749 9.12 108.337 9.96 108.309 11.332H112.957V8.728H116.149V19.844C116.149 21.692 115.309 23.064 113.937 24.072C114.805 25.08 115.337 26.34 115.337 27.824C115.337 31.296 112.285 33.704 108.673 33.704C105.033 33.704 101.981 31.324 101.981 27.824C101.981 24.296 105.033 21.888 108.673 21.888C109.877 21.888 111.025 22.168 112.033 22.644C112.677 22 112.957 21.16 112.957 19.788V19.368H107.609V16.848H112.957V13.852H107.833C106.517 17.52 102.765 20.74 98.0885 22.924L96.7165 20.348C100.329 18.64 103.801 16.316 104.893 12.872C105.145 12.032 104.977 11.696 104.277 11.696H96.9965ZM112.061 27.824C112.061 25.808 110.717 24.436 108.673 24.436C106.629 24.436 105.201 25.808 105.201 27.824C105.201 29.84 106.629 31.156 108.673 31.156C110.717 31.156 112.061 29.84 112.061 27.824ZM139.798 31.324H136.578V9.008H139.798V31.324ZM122.494 26.984L120.786 24.604C125.49 21.272 128.346 18.276 129.13 13.74C129.214 13.18 129.27 12.564 128.486 12.564H120.758V9.96H130.558C132.238 9.96 132.714 11.22 132.574 12.648C132.07 17.688 128.766 23.176 122.494 26.984ZM155.187 22.252L155.803 24.66C154.067 25.416 151.519 25.836 149.559 25.836H147.655C145.275 25.836 144.239 24.912 144.239 22.812V9.96H154.207V12.508H147.291V22.364C147.291 23.008 147.571 23.232 148.187 23.232H149.503C151.155 23.232 153.619 22.924 155.187 22.252ZM159.891 30.764H156.895V19.004H151.939V16.26H156.895V9.008H159.891V30.764ZM165.547 31.324H162.551V9.008H165.547V31.324ZM188.777 9.008V31.324H185.557V9.008H188.777ZM182.085 17.492C182.085 21.636 179.537 24.912 175.141 24.912C170.745 24.912 168.197 21.636 168.197 17.492C168.197 13.348 170.773 10.044 175.141 10.044C179.537 10.044 182.085 13.348 182.085 17.492ZM178.949 17.492C178.949 14.916 177.633 12.732 175.141 12.732C172.649 12.732 171.361 14.916 171.361 17.492C171.361 20.04 172.649 22.224 175.141 22.224C177.633 22.224 178.949 20.04 178.949 17.492ZM206.77 22.924L207.246 25.388C204.894 26.144 201.758 26.62 199.322 26.62H196.326C194.198 26.62 192.966 25.472 192.966 23.372V9.96H204.866V12.592H196.158V16.596H203.578V19.228H196.158V23.064C196.158 23.54 196.494 23.988 197.026 23.988H199.182C201.31 23.988 204.446 23.624 206.77 22.924ZM205.146 19.144V16.484H209.542V9.008H212.762V31.324H209.542V19.144H205.146ZM231.315 8.672H234.507V16.652C233.051 17.464 230.587 18.276 228.571 18.276H222.103C220.115 18.276 218.743 17.604 218.743 15.644V8.672H221.935V10.94H231.315V8.672ZM228.795 26.928H225.603V22.868H215.999V20.292H237.559V22.868H228.795V26.928ZM218.463 24.884H221.711V29.532C221.711 29.98 221.851 30.288 222.467 30.288H229.131C231.287 30.288 233.107 29.952 234.927 29.42L235.599 31.772C233.891 32.416 231.735 32.836 229.187 32.836H221.263C219.499 32.836 218.463 31.912 218.463 30.372V24.884ZM228.207 15.812C229.271 15.812 230.251 15.588 231.315 15.112V13.376H221.935V15.112C221.935 15.616 222.159 15.812 222.691 15.812H228.207ZM252.248 15.812V13.264H257.092V8.728H260.284V20.096C260.284 21.636 259.556 22.672 258.688 23.456C259.92 23.568 260.2 24.38 260.144 25.5L259.808 33.116H256.84V26.816C256.84 26.088 256.728 26.004 255.916 26.004H243.904V23.428H255.944C256.784 22.7 257.092 21.328 257.092 20.04V15.812H252.248ZM244.212 9.316L247.208 8.336C247.768 9.512 247.936 10.324 247.964 11.528C247.964 12.34 247.88 13.124 247.656 13.908C249.336 14.104 250.148 14.692 250.82 15.728C251.688 17.016 252.584 18.5 253.396 19.844L251.072 21.552C250.064 19.788 249.336 18.64 248.72 17.66C248.244 16.904 247.768 16.344 246.732 16.064C245.556 18.192 243.568 20.124 241.048 21.692L239.396 19.34C243.092 16.932 244.716 14.552 244.716 11.556C244.716 10.8 244.548 10.072 244.212 9.316ZM277.017 13.32H280.125V16.708C280.125 17.688 279.985 18.668 279.509 19.592H282.757V22.168H275.925V26.284H285.137V28.86H263.549V26.284H272.621V22.168H265.621V19.592H268.897C268.505 18.808 268.253 17.94 268.253 16.736V13.32H271.361V17.016C271.361 17.912 271.417 18.724 271.809 19.592H276.653C276.961 18.836 277.017 17.8 277.017 17.016V13.32ZM282.617 12.172H265.761V9.568H282.617V12.172ZM303.018 33.116H294.282C293.078 33.116 292.126 32.612 292.126 31.1V26.62H304.642V24.996H292.126V22.532H303.494C304.362 21.804 304.67 20.432 304.67 19.116V15.392H300.638V12.844H304.67V8.728H307.862V19.172C307.862 20.712 307.106 21.776 306.238 22.56C307.61 22.644 307.974 23.232 307.834 24.492L307.386 28.132C307.33 28.664 307.134 28.972 306.406 28.972H295.374V30.652H302.99C304.418 30.652 306.126 30.484 307.638 30.064L308.226 32.388C306.378 32.948 304.642 33.116 303.018 33.116ZM292.126 18.136H293.89C296.69 18.136 299.35 17.94 301.786 17.24L302.29 19.592C300.33 20.32 296.186 20.684 293.694 20.684H291.482C289.55 20.684 288.15 19.928 288.15 17.772V9.12H299.938V11.668H291.314V13.516H298.958V16.036H291.314V17.352C291.314 17.94 291.51 18.136 292.126 18.136Z" fill="#575756"/>
</svg>
