<svg width="16" height="16" viewBox="0 0 16 16" fill="none" xmlns="http://www.w3.org/2000/svg">
<path fill-rule="evenodd" clip-rule="evenodd" d="M2.6665 1.86668C2.6665 1.57212 2.90529 1.33334 3.19984 1.33334H12.8C13.0945 1.33334 13.3333 1.57212 13.3333 1.86668C13.3333 2.16123 13.0945 2.40001 12.8 2.40001H3.19984C2.90529 2.40001 2.6665 2.16123 2.6665 1.86668Z" fill="#33363D"/>
<path fill-rule="evenodd" clip-rule="evenodd" d="M10.6998 4.72079C10.4858 4.92321 10.1483 4.91383 9.94585 4.69985L8.5333 3.20658L8.5333 14.1335C8.5333 14.428 8.29452 14.6668 7.99997 14.6668C7.70542 14.6668 7.46663 14.428 7.46663 14.1335L7.46663 3.20658L6.05408 4.69985C5.85167 4.91383 5.51411 4.92321 5.30013 4.72079C5.08615 4.51838 5.07677 4.18082 5.27918 3.96683L7.61252 1.50017C7.71325 1.39368 7.85338 1.33334 7.99997 1.33334C8.14656 1.33334 8.28668 1.39368 8.38742 1.50017L10.7208 3.96683C10.9232 4.18082 10.9138 4.51838 10.6998 4.72079Z" fill="#33363D"/>
<path fill-rule="evenodd" clip-rule="evenodd" d="M5.30013 11.2794C5.51411 11.0769 5.85167 11.0863 6.05408 11.3003L7.90311 13.255C7.95571 13.3106 8.04423 13.3106 8.09683 13.255L9.94585 11.3003C10.1483 11.0863 10.4858 11.0769 10.6998 11.2794C10.9138 11.4818 10.9232 11.8193 10.7208 12.0333L8.87173 13.988C8.3983 14.4885 7.60163 14.4885 7.12821 13.988L5.27918 12.0333C5.07677 11.8193 5.08614 11.4818 5.30013 11.2794Z" fill="#33363D"/>
<path fill-rule="evenodd" clip-rule="evenodd" d="M2.6665 14.1333C2.6665 13.8388 2.90529 13.6 3.19984 13.6H12.8C13.0945 13.6 13.3333 13.8388 13.3333 14.1333C13.3333 14.4279 13.0945 14.6667 12.8 14.6667H3.19984C2.90529 14.6667 2.6665 14.4279 2.6665 14.1333Z" fill="#33363D"/>
</svg>
