<svg width="18" height="18" viewBox="0 0 18 18" fill="none" xmlns="http://www.w3.org/2000/svg">
<path d="M6.27 15.4487C5.41833 15.0812 4.6775 14.5825 4.0475 13.9525C3.4175 13.3225 2.91875 12.5817 2.55125 11.73C2.18375 10.8783 2 9.96833 2 9C2 8.03167 2.18375 7.12167 2.55125 6.27C2.91875 5.41833 3.4175 4.6775 4.0475 4.0475C4.6775 3.4175 5.41833 2.91875 6.27 2.55125C7.12167 2.18375 8.03167 2 9 2C9.96833 2 10.8783 2.18375 11.73 2.55125C12.5817 2.91875 13.3225 3.4175 13.9525 4.0475C14.5825 4.6775 15.0812 5.41833 15.4487 6.27C15.8162 7.12167 16 8.03167 16 9C16 9.96833 15.8162 10.8783 15.4487 11.73C15.0812 12.5817 14.5825 13.3225 13.9525 13.9525C13.3225 14.5825 12.5817 15.0812 11.73 15.4487C10.8783 15.8162 9.96833 16 9 16C8.03167 16 7.12167 15.8162 6.27 15.4487ZM9 12.85C9.525 12.325 9.99167 11.7825 10.4 11.2225C10.75 10.7442 11.0708 10.2192 11.3625 9.6475C11.6542 9.07583 11.8 8.51 11.8 7.95C11.8 7.18 11.5258 6.52083 10.9775 5.9725C10.4292 5.42417 9.77 5.15 9 5.15C8.23 5.15 7.57083 5.42417 7.0225 5.9725C6.47417 6.52083 6.2 7.18 6.2 7.95C6.2 8.51 6.34583 9.07583 6.6375 9.6475C6.92917 10.2192 7.25 10.7442 7.6 11.2225C8.00833 11.7825 8.475 12.325 9 12.85ZM8.25625 8.69375C8.05208 8.48958 7.95 8.24167 7.95 7.95C7.95 7.65833 8.05208 7.41042 8.25625 7.20625C8.46042 7.00208 8.70833 6.9 9 6.9C9.29167 6.9 9.53958 7.00208 9.74375 7.20625C9.94792 7.41042 10.05 7.65833 10.05 7.95C10.05 8.24167 9.94792 8.48958 9.74375 8.69375C9.53958 8.89792 9.29167 9 9 9C8.70833 9 8.46042 8.89792 8.25625 8.69375Z" fill="#6A5341"/>
</svg>
