<svg width="16" height="16" viewBox="0 0 16 16" fill="none" xmlns="http://www.w3.org/2000/svg">
<path d="M13.4668 2.00098C13.7613 2.00105 14 2.23967 14 2.53418V7.86719C14 8.1617 13.7613 8.40032 13.4668 8.40039C13.1722 8.40039 12.9336 8.16174 12.9336 7.86719V3.81055L3.69824 12.9326H7.86621C8.1607 12.9326 8.40029 13.1714 8.40039 13.4658C8.40039 13.7604 8.16076 13.999 7.86621 13.999H2.5332C2.23871 13.999 2 13.7603 2 13.4658V8.13281C2 7.8383 2.23871 7.59968 2.5332 7.59961C2.82775 7.59961 3.06641 7.83826 3.06641 8.13281V12.0576L12.168 3.06738H8.13379C7.8393 3.06738 7.59971 2.82864 7.59961 2.53418C7.59961 2.23963 7.83924 2.00098 8.13379 2.00098H13.4668Z" fill="#33363D"/>
</svg>
