<svg width="16" height="16" viewBox="0 0 16 16" fill="none" xmlns="http://www.w3.org/2000/svg">
<path fill-rule="evenodd" clip-rule="evenodd" d="M5.79321 2.04215C5.91775 1.98946 6.05766 1.98605 6.18462 2.0326L9.98707 3.42683L13.261 2.04225C13.4257 1.9726 13.6143 1.99012 13.7634 2.08892C13.9124 2.18772 14.0021 2.35464 14.0021 2.53346V11.8668C14.0021 12.0748 13.8811 12.2639 13.6922 12.3511L10.2245 13.9511C10.0914 14.0125 9.93898 14.0164 9.80294 13.962L6.01604 12.4472L2.94595 13.8636C2.50418 14.0675 1.99995 13.7447 2 13.2582L2.00102 3.99994C2.00104 3.78571 2.12925 3.59229 2.32654 3.50882L5.79321 2.04215ZM3.06765 4.35348L5.46615 3.33873V11.5262L3.06674 12.6332L3.06765 4.35348ZM9.46615 12.6784L6.53281 11.5051V3.29638L9.46615 4.37193V12.6784ZM10.5328 12.6341L12.9354 11.5255V3.33808L10.5328 4.35417V12.6341Z" fill="#33363D"/>
</svg>
